<?xml version="1.0" encoding="utf-8"?>
<!-- Generator: Adobe Illustrator 25.2.3, SVG Export Plug-In . SVG Version: 6.00 Build 0)  -->
<svg version="1.1" id="Layer_1" xmlns="http://www.w3.org/2000/svg" xmlns:xlink="http://www.w3.org/1999/xlink" x="0px" y="0px"
	 viewBox="0 0 1310.55 595.29" style="enable-background:new 0 0 1310.55 595.29;" xml:space="preserve">
<style type="text/css">
	.st0{fill:#BB0A1E;}
	.st1{fill:#02564A;}
	.st2{fill:#A2A2A2;}
	.st3{fill:none;stroke:#FFFFFF;stroke-miterlimit:10;}
	.st4{fill:none;stroke:#FFFFFF;stroke-miterlimit:10;stroke-dasharray:3.9574,3.9574;}
	.st5{fill:#880808;}
	.st6{fill:#CA121A;}
</style>
<g>
	<g>
		<path class="st0" d="M310.94,147.68l34.3-12.25v119.21h56.34V135.44c0-16-2.93-28.77-8.82-38.33
			c-5.87-9.55-14.86-14.34-26.95-14.34c-5.71,0-12.25,1.23-19.6,3.68L310.94,98.7V16.79H254.6v237.85h56.34V147.68z"/>
		<path class="st1" d="M337.41,283.58c-8.09-3.11-19.23-4.66-33.43-4.66h-34.3c-14.21,0-25.36,1.55-33.43,4.66
			c-8.09,3.09-13.92,8.16-17.52,15.18c-3.59,7.03-5.38,16.74-5.38,29.15v110.17c0,12.57,1.72,22.33,5.15,29.26
			c3.42,6.95,9.09,11.97,17.02,15.06c7.91,3.11,18.98,4.66,33.2,4.66h35.27c14.2,0,25.34-1.55,33.43-4.66
			c8.08-3.09,13.92-8.16,17.52-15.18c3.58-7.02,5.38-16.74,5.38-29.15v-40.91l-56.34,17.3v23.6l-34.3,9v-42.4l90.63-31.84v-44.93
			c0-12.41-1.8-22.13-5.38-29.15C351.33,291.75,345.49,286.68,337.41,283.58z M303.98,352.1l-34.3,12.01v-36.2h34.3V352.1z"/>
		<path class="st1" d="M865.41,467.23c3.59-7.02,5.38-16.74,5.38-29.15v-40.91l-56.34,17.3v23.6l-34.3,9v-42.4l90.63-31.84v-44.93
			c0-12.41-1.79-22.13-5.38-29.15c-3.59-7.01-9.43-12.08-17.52-15.18c-8.08-3.11-19.22-4.66-33.43-4.66h-34.3
			c-14.2,0-25.34,1.55-33.43,4.66c-8.08,3.09-13.92,8.16-17.52,15.18c-3.59,7.03-5.38,16.74-5.38,29.15v110.17
			c0,12.57,1.72,22.33,5.15,29.26c3.43,6.95,9.1,11.97,17.02,15.06c7.93,3.11,19,4.66,33.19,4.66h35.27
			c14.21,0,25.36-1.55,33.43-4.66C855.98,479.31,861.82,474.24,865.41,467.23z M780.17,327.91h34.3v24.19l-34.3,12.01V327.91z"/>
		<polygon class="st1" points="629.75,422.22 608.45,278.93 551.38,278.93 596.43,487.74 663.09,487.74 708.14,278.93 
			651.07,278.93 		"/>
		<path class="st1" d="M1197.15,523.51c-13.94,3.99-28.85,6-44.73,6c-25.93,0-47.07-4.33-63.39-12.99
			c-16.32-8.65-28.4-22-36.25-40.04c-7.85-18.04-11.78-41.36-11.78-69.93v-78.64c0-16-3.17-28.78-9.53-38.33
			c-6.35-9.55-16.05-14.34-29.11-14.34c-2.15,0-4.43,0.15-6.8,0.45c-7.23,0.91-14.21,3.14-20.7,6.44l-17.83,9.04v-12.25h-50.95
			v208.81h12.37h24.63h22.26c1.54-21.77,2.78-38.76,3.13-41.81c1.87-16.14-7.76-20.75-22.38-39.83c-1.14-1.49-2.14-3.08-3.02-4.76
			c-6.27-11.91-6.2-28.52-0.44-45.8c0.14-0.43,0.29-0.85,0.44-1.26c2.07-5.95,4.67-11.63,7.66-16.64c3.17-5.32,6.77-9.88,10.68-13.2
			c4.33-3.68,9.04-5.86,13.9-5.86c13.67,0,26.07,17.17,32.68,36.96c6.59,19.72,5.75,38.57-3.44,50.56
			c-12.46,16.27-21.29,22.01-22.45,33.36c2.83,22.6,8.75,42.7,17.74,60.29c13.14,25.72,32.19,45.28,57.16,58.66
			c24.97,13.4,55,20.08,90.12,20.08c16.58,0,32.02-1.95,46.31-5.87c14.3-3.92,26.47-9.48,36.53-16.65v-49
			C1222.04,514,1211.09,519.51,1197.15,523.51z"/>
		<path class="st1" d="M508.87,283.58c-8.08-3.11-19.22-4.66-33.43-4.66h-84.06l10.58,48.99h73.48v31.84h-34.28
			c-14.21,0-25.36,1.57-33.45,4.66c-8.08,3.11-13.92,8.16-17.51,15.19c-3.59,7.02-5.4,16.74-5.4,29.15v29.39
			c0,12.58,1.72,22.34,5.15,29.28c3.43,6.95,9.1,11.96,17.03,15.06c7.91,3.11,18.98,4.66,33.18,4.66h91.62V327.91
			c0-12.41-1.8-22.13-5.4-29.15C522.79,291.75,516.96,286.68,508.87,283.58z M475.44,438.14h-34.28v-29.39h34.28V438.14z"/>
		<path class="st0" d="M567.66,234.8c3.58-7.01,5.38-16.73,5.38-29.14v-40.91l-56.34,17.3v23.6l-34.3,9v-42.41l90.63-31.84V95.49
			c0-12.41-1.8-22.13-5.38-29.15c-3.61-7.01-9.44-12.08-17.52-15.18c-8.09-3.11-19.23-4.66-33.43-4.66h-34.3
			c-14.21,0-25.36,1.55-33.43,4.66c-8.09,3.09-13.92,8.16-17.52,15.18c-3.59,7.02-5.38,16.74-5.38,29.15v110.17
			c0,12.57,1.72,22.33,5.13,29.26c3.43,6.95,9.1,11.97,17.03,15.06c7.91,3.11,18.98,4.66,33.19,4.66h35.27
			c14.2,0,25.34-1.55,33.43-4.66C558.22,246.89,564.05,241.82,567.66,234.8z M482.41,95.49h34.3v24.19l-34.3,12V95.49z"/>
		<polygon class="st0" points="229.18,16.82 82.21,16.82 82.21,65.82 93.31,65.82 127.61,65.82 127.61,278.93 127.61,290.07 
			127.61,325.26 183.94,305.21 183.94,290.07 183.94,278.93 183.94,65.82 229.18,65.82 		"/>
		<polygon class="st1" points="93.31,263.21 93.31,166.3 93.31,166.3 93.31,166.3 36.97,186.28 36.97,228.36 36.97,228.36 
			36.97,263.21 36.97,487.74 93.31,487.74 93.31,402.39 127.61,390.14 127.61,487.74 183.94,487.74 183.94,331.85 93.31,364.11 		
			"/>
	</g>
	<path class="st1" d="M1176.19,428.23v44.75c-2.32,0.71-5.15,1.06-8.5,1.06c-5.23,0-7.83-2.06-7.83-6.18v-16.12
		c0-4.05,2.58-6.07,7.72-6.07c1.59,0,3.17,0.08,4.75,0.23V435.5c-1.89-0.2-3.99-0.3-6.28-0.3c-11.62,0-17.64,5.08-18.08,15.23h-8.63
		v-16.12c0-2.65-0.26-4.67-0.77-6.08H1176.19z"/>
	<path class="st1" d="M1218.46,428.23h11.7v55.71c-12.09,6.27-26.16,11.45-41.5,14.93c-52.76,11.98-100.59-0.59-106.83-28.09
		c-3.2-14.1,5.15-29.38,21.17-42.55h23.18c0.74,1.62,1.1,3.65,1.1,6.08v14.35c0,3.82-2.07,5.74-6.18,5.74
		c-1.55,0-3.17-0.25-4.86-0.77v-12.36h-12.25v31.9c0,5.74,1.83,10.25,5.51,13.51c3.68,3.28,8.73,4.92,15.13,4.92
		c6.41,0,11.74-0.74,16-2.21v-11.47c-4.42,1.69-8.87,2.54-13.35,2.54c-7.36,0-11.04-2.54-11.04-7.62v-8.27
		c2.5,0.44,4.63,0.66,6.4,0.66c5.81,0,10.05-1.4,12.7-4.19h12.58v7.17c0,10.89,6,16.33,17.99,16.33c4.26,0,7.67-0.36,10.27-1.09
		v7.61h12.36v-62.81h17.65v25.61c0,3.83-2.13,5.75-6.4,5.75c-0.59,0-1.76-0.08-3.53-0.23v11.81c0.66,0.22,2.42,0.33,5.29,0.33
		c5.37,0,9.53-1.43,12.47-4.3c2.94-2.87,4.42-7.03,4.42-12.47V428.23z"/>
	<path class="st1" d="M1227.74,407.05c0,4.71,1.17,8.31,3.53,10.81h-113.3c13.44-7.9,29.86-14.43,48.08-18.56
		c23.9-5.43,46.78-5.81,65.25-2.07C1228.93,399.72,1227.74,402.98,1227.74,407.05z"/>
	<path class="st1" d="M1242.41,476.78v-48.55h9.61v-10.37h-9.71c-1.04-1.18-1.8-2.42-2.32-3.76c-0.51-1.32-0.77-2.68-0.77-4.09
		c0-4.77,2.76-7.17,8.28-7.17c0.01,0,0.01,0,0.02,0c1.35,0,2.68,0.36,3.89,0.95c11.48,5.59,19.23,13.61,21.5,23.59
		C1276.67,444.02,1264.39,462.28,1242.41,476.78z"/>
	<g>
		<g>
			<path class="st2" d="M321.71,533.23c-0.65,0-1.25-0.04-1.81-0.09v3.67c0,4.27,0.43,6.99,1.51,10.13h-9.36
				c1.08-3.15,1.51-5.86,1.51-10.13v-15.05c0-4.27-0.43-6.99-1.51-10.13h8.84c8.88,0,13.67,4.79,13.67,10.69
				C334.56,529.05,329.52,533.23,321.71,533.23z M320.07,515.46c-0.13,1.25-0.17,2.8-0.17,4.66v10.26c5-0.56,8.15-3.71,8.15-7.72
				S325.03,515.68,320.07,515.46z"/>
			<path class="st2" d="M414.9,546.94h-9.79c0.09-0.3,0.13-0.69,0.13-1.16c0-1.51-0.47-3.1-1.72-6.17l-0.78-1.9h-13.8l-0.91,2.03
				c-1.21,2.76-1.72,4.53-1.72,6.04c0,0.39,0.04,0.78,0.09,1.16h-9.66v-0.13c1.77-2.07,3.15-4.31,4.92-8.15l8.5-18.33
				c1.68-3.62,2.85-6.51,3.41-8.71h5.56c0.47,2.03,1.55,4.92,3.19,8.71l7.85,18.46c1.51,3.49,2.72,5.56,4.74,8.02V546.94z
				 M391.23,532.58h9.44l-4.53-11.08L391.23,532.58z"/>
			<path class="st2" d="M463.76,521.76c0-4.27-0.43-6.99-1.51-10.13h9.36c-1.08,3.15-1.51,5.87-1.51,10.13v20.44
				c2.2-0.17,4.66-0.56,7.29-1.21c2.67-0.65,4.74-1.38,6.21-2.11l0.09,0.09l-3.28,7.98h-18.15c1.08-3.15,1.51-5.86,1.51-10.13
				V521.76z"/>
			<path class="st2" d="M567.04,546.94h-9.79c0.09-0.3,0.13-0.69,0.13-1.16c0-1.51-0.47-3.1-1.72-6.17l-0.78-1.9h-13.8l-0.91,2.03
				c-1.21,2.76-1.72,4.53-1.72,6.04c0,0.39,0.04,0.78,0.09,1.16h-9.66v-0.13c1.77-2.07,3.15-4.31,4.92-8.15l8.5-18.33
				c1.68-3.62,2.85-6.51,3.41-8.71h5.56c0.47,2.03,1.55,4.92,3.19,8.71l7.85,18.46c1.51,3.49,2.72,5.56,4.74,8.02V546.94z
				 M543.36,532.58h9.44l-4.53-11.08L543.36,532.58z"/>
			<path class="st2" d="M633.06,511.19c3.06,0,5.48,0.35,8.28,1.21v6.42l-0.13,0.04c-2.59-1.68-6.12-2.72-9.44-2.72
				c-6.86,0-11.99,5.52-11.99,13.07c-0.13,7.2,5,13.02,11.56,12.89c4.36,0,8.32-1.55,10.78-3.97l0.13,0.04l-0.34,6.51
				c-3.15,1.77-6.9,2.67-11.25,2.67c-10.48,0.13-17.98-7.68-17.85-17.51C612.58,518.65,621.94,511.06,633.06,511.19z"/>
			<path class="st2" d="M693.95,521.76c0-4.27-0.43-6.99-1.51-10.13h20.27l-3.06,6.68c-2.5-1.47-5.61-2.24-9.36-2.33v10.69h11.21
				l-3.58,6.08c-2.03-0.91-4.57-1.42-7.63-1.55v11.17c5.74,0,9.96-0.73,14.23-2.59l0.09,0.09l-2.93,7.07h-19.23
				c1.08-3.15,1.51-5.86,1.51-10.13V521.76z"/>
		</g>
	</g>
	<path class="st2" d="M252.11,527.35c-1.6,0.01-3.21,0.02-4.8,0.03c-21.72,0.17-42.72,0.39-62.63,0.63
		c-19.91,0.25-38.74,0.53-56.11,0.82c-8.69,0.16-17.02,0.31-24.94,0.46c-7.92,0.17-15.43,0.32-22.49,0.47
		c-14.11,0.27-26.42,0.61-36.56,0.87c-10.14,0.24-10.14,1.62,0,1.86c10.14,0.25,22.45,0.59,36.56,0.86
		c7.06,0.15,14.57,0.3,22.49,0.47c7.92,0.15,16.25,0.3,24.94,0.45c17.38,0.29,36.2,0.57,56.11,0.82
		c19.91,0.24,40.91,0.47,62.63,0.63c1.59,0.01,3.19,0.02,4.8,0.04V527.35z"/>
	<path class="st2" d="M972.36,530.39c-10.13-0.26-22.44-0.59-36.56-0.87c-7.06-0.15-14.57-0.3-22.49-0.47
		c-7.92-0.15-16.24-0.29-24.93-0.46c-17.38-0.28-36.2-0.57-56.11-0.82c-19.91-0.24-40.91-0.46-62.63-0.63
		c-2.64-0.02-5.33-0.04-8-0.05v8.9c0.03-0.15,0.07-0.3,0.1-0.45c2.63-0.02,5.29-0.04,7.9-0.06c21.72-0.17,42.72-0.39,62.63-0.63
		c19.91-0.25,38.73-0.52,56.11-0.82c8.69-0.15,17.02-0.3,24.93-0.45c7.92-0.17,15.43-0.32,22.49-0.47
		c14.12-0.27,26.43-0.61,36.56-0.86C982.5,532.01,982.5,530.63,972.36,530.39z"/>
</g>
</svg>
